<?xml version="1.0" encoding="UTF-8"?>
<svg width="23px" height="20px" viewBox="0 0 23 20" version="1.1" xmlns="http://www.w3.org/2000/svg" xmlns:xlink="http://www.w3.org/1999/xlink">
    <!-- Generator: Sketch 62 (91390) - https://sketch.com -->
    <title>优惠券 (3)</title>
    <desc>Created with Sketch.</desc>
    <g id="页面-1" stroke="none" stroke-width="1" fill="none" fill-rule="evenodd">
        <g id="列表页优化设计" transform="translate(-422.000000, -403.000000)" fill-rule="nonzero">
            <g id="专属价" transform="translate(422.000000, 401.000000)">
                <g id="优惠券-(3)" transform="translate(0.000000, 2.000000)">
                    <path d="M5.17041146,13.6408692 C5.17041146,15.1208043 5.95994742,16.4883208 7.24160885,17.2282884 C8.52327028,17.968256 10.1023423,17.968256 11.3840037,17.2282884 C12.6656651,16.4883208 13.4552011,15.1208043 13.4552011,13.6408692 C13.4552011,11.3530877 11.6005878,9.49847434 9.31280629,9.49847434 C7.02502479,9.49847434 5.17041146,11.3530877 5.17041146,13.6408692 L5.17041146,13.6408692 Z" id="路径" fill="#FFCD00"></path>
                    <path d="M16.6448451,7.43319464 L10.4371706,0.870457694 C10.105779,0.521312985 9.53176146,0.521312985 9.20628757,0.870457694 L6.56107257,3.66361534 L6.12907998,3.25529357 L8.77429495,0.462135922 C9.33055939,-0.123717063 10.3128987,-0.123717063 10.8632455,0.462135922 L17.07092,7.02487286 L16.6448451,7.43319464 L16.6448451,7.43319464 Z" id="路径" fill="#000000"></path>
                    <path d="M15.2305132,7.49828942 L5.14674063,3.27896439 C4.9292382,3.18527037 4.68270884,3.18550074 4.46538189,3.27960107 C4.24805493,3.3737014 4.07920199,3.55332729 3.99870551,3.77605177 L2.66722146,7.33259362 L2.11095701,7.12547388 L3.44244104,3.56893204 C3.58446602,3.19019879 3.86259823,2.89431345 4.22949607,2.74045308 C4.59639388,2.580675 5.00471568,2.580675 5.3716135,2.73453536 L15.4613037,6.95386039 L15.2305132,7.49828942 L15.2305132,7.49828942 Z M16.4140546,17.5051318 C16.2483588,17.5051318 16.1181692,17.3749422 16.1181692,17.2092464 L16.1181692,16.6174757 C16.1181692,16.4517799 16.2483588,16.3215904 16.4140546,16.3215904 C16.5797504,16.3215904 16.7099399,16.45178 16.7099399,16.6174757 L16.7099399,17.2092464 C16.7099399,17.3749422 16.5797503,17.5051318 16.4140546,17.5051318 Z M16.4140546,15.138049 C16.2483588,15.138049 16.1181692,15.0078594 16.1181692,14.8421637 L16.1181692,14.250393 C16.1181692,14.0846972 16.2483588,13.9545076 16.4140546,13.9545076 C16.5797504,13.9545076 16.7099399,14.0846972 16.7099399,14.250393 L16.7099399,14.8421637 C16.7099399,15.0078595 16.5797503,15.138049 16.4140546,15.138049 Z M16.4140546,12.7709663 C16.2483588,12.7709663 16.1181692,12.6407767 16.1181692,12.4750809 L16.1181692,11.8833102 C16.1181692,11.7176144 16.2483588,11.5874249 16.4140546,11.5874249 C16.5797504,11.5874249 16.7099399,11.7176144 16.7099399,11.8833102 L16.7099399,12.4750809 C16.7099399,12.6407767 16.5797503,12.7709663 16.4140546,12.7709663 Z M16.4140546,10.4038835 C16.2483588,10.4038835 16.1181692,10.2736939 16.1181692,10.1079982 L16.1181692,9.51622745 C16.1181692,9.35053165 16.2483588,9.22034211 16.4140546,9.22034211 C16.5797504,9.22034211 16.7099399,9.35053167 16.7099399,9.51622745 L16.7099399,10.1079982 C16.7099399,10.273694 16.5797503,10.4038835 16.4140546,10.4038835 Z M13.1238095,11.1376792 L5.45446141,11.1376792 C5.28876561,11.1376792 5.15857604,11.0074896 5.15857604,10.8417938 C5.15857604,10.676098 5.28876561,10.5459085 5.45446141,10.5459085 L13.1238095,10.5459085 C13.2895053,10.5459085 13.4196949,10.676098 13.4196949,10.8417938 C13.4196949,11.0074896 13.2895053,11.1376792 13.1238095,11.1376792 Z M13.1238095,13.9367545 L5.45446141,13.9367545 C5.28876561,13.9367545 5.15857604,13.806565 5.15857604,13.6408692 C5.15857604,13.4751734 5.28876561,13.3449838 5.45446141,13.3449838 L13.1238095,13.3449838 C13.2895053,13.3449838 13.4196949,13.4751734 13.4196949,13.6408692 C13.4196949,13.806565 13.2895053,13.9367545 13.1238095,13.9367545 Z M13.1238095,16.7358299 L5.45446141,16.7358299 C5.28876561,16.7358299 5.15857604,16.6056403 5.15857604,16.4399445 C5.15857604,16.2742487 5.28876561,16.1440592 5.45446141,16.1440592 L13.1238095,16.1440592 C13.2895053,16.1440592 13.4196949,16.2742487 13.4196949,16.4399445 C13.4196949,16.6056403 13.2895053,16.7358299 13.1238095,16.7358299 Z" id="形状" fill="#000000"></path>
                    <path d="M20.8109108,19.9550624 L1.51918631,19.9550624 C0.690707354,19.9550624 0.0160887621,19.2804438 0.0160887621,18.4519649 L0.0160887621,15.5759593 C0.0160887621,15.4102635 0.146278325,15.280074 0.311974102,15.280074 C1.2647249,15.280074 2.0340268,14.4575127 2.03402682,13.4396671 C2.03402682,12.4454924 1.2469718,11.5992603 0.311974102,11.5992603 C0.146278301,11.5992603 0.0160887621,11.4690707 0.0160887621,11.303375 L0.0160887621,8.42736939 C0.0160887621,7.59889044 0.690707354,6.92427184 1.51918631,6.92427184 L20.8109108,6.92427184 C21.6393897,6.92427184 22.3140083,7.59889044 22.3140083,8.42736939 L22.3140083,11.303375 C22.3140083,11.4690708 22.1838188,11.5992603 22.018123,11.5992603 C21.0653722,11.5992603 20.2960703,12.4218216 20.2960703,13.4396671 C20.2960703,14.451595 21.0712899,15.280074 22.018123,15.280074 C22.1838188,15.280074 22.3140083,15.4102635 22.3140083,15.5759593 L22.3140083,18.4519649 C22.3140083,19.2804438 21.6393897,19.9550624 20.8109108,19.9550624 L20.8109108,19.9550624 Z M0.607859466,15.8540915 L0.607859466,18.4519649 C0.607859466,18.95497 1.01618124,19.3632917 1.51918631,19.3632917 L20.8109108,19.3632917 C21.3139159,19.3632917 21.7222376,18.95497 21.7222376,18.4519649 L21.7222376,15.8540915 C20.5860379,15.7002311 19.7042996,14.6764679 19.7042996,13.4455848 C19.7042996,12.2087841 20.5860379,11.1909385 21.7222376,11.0370781 L21.7222376,8.43920481 C21.7222376,7.93619971 21.3139158,7.52787794 20.8109108,7.52787794 L1.51918631,7.52787794 C1.01618121,7.52787794 0.607859466,7.93619971 0.607859466,8.43920481 L0.607859466,11.0370781 C1.72630607,11.1968562 2.62579752,12.2324549 2.6257975,13.4455848 C2.6257975,14.6823856 1.74405917,15.7002312 0.607859466,15.8540915 Z" id="形状" fill="#000000"></path>
                </g>
            </g>
        </g>
    </g>
</svg>