<svg xmlns="http://www.w3.org/2000/svg" width="16" height="16" viewBox="0 0 16 16">
  <path fill="#ffffff" fill-rule="evenodd" d="M3804.64,441.528l-3.83-3.821a6.19,6.19,0,0,0,.91-3.248,6.59,6.59,0,0,0-6.46-6.449,6.263,6.263,0,0,0-6.26,6.257,6.6,6.6,0,0,0,6.46,6.449,6.2,6.2,0,0,0,3.15-.851l3.85,3.843a0.961,0.961,0,0,0,1.36,0l0.95-.953A0.819,0.819,0,0,0,3804.64,441.528Zm-13.71-7.261a4.332,4.332,0,0,1,4.33-4.332,4.666,4.666,0,0,1,4.53,4.524,4.332,4.332,0,0,1-4.33,4.332A4.667,4.667,0,0,1,3790.93,434.267Z" transform="translate(-3789 -428)"/>
</svg>
